<svg xmlns="http://www.w3.org/2000/svg" width="375" viewBox="0 0 375 375" height="375" version="1.0"><defs><clipPath id="a"><path d="M 166 130.738281 L 210 130.738281 L 210 194 L 166 194 Z M 166 130.738281"/></clipPath><clipPath id="b"><path d="M 149 171 L 227 171 L 227 225.847656 L 149 225.847656 Z M 149 171"/></clipPath></defs><path fill="#333652" d="M 187.5 114.441406 C 147.152344 114.441406 114.441406 147.152344 114.441406 187.5 C 114.441406 227.847656 147.152344 260.558594 187.5 260.558594 C 227.847656 260.558594 260.558594 227.847656 260.558594 187.5 C 260.558594 147.152344 227.847656 114.441406 187.5 114.441406 Z M 187.5 114.441406"/><g clip-path="url(#a)"><path fill="#FAD02C" d="M 188.035156 130.753906 C 175.964844 130.753906 166.179688 140.585938 166.179688 152.714844 C 166.179688 161.28125 177.082031 180.53125 183.488281 191.097656 C 185.5625 194.519531 190.503906 194.519531 192.578125 191.097656 C 198.984375 180.53125 209.890625 161.28125 209.890625 152.714844 C 209.890625 140.585938 200.105469 130.753906 188.035156 130.753906 Z M 188.035156 166.289062 C 180.84375 166.289062 175.011719 160.433594 175.011719 153.207031 C 175.011719 145.980469 180.84375 140.125 188.035156 140.125 C 195.226562 140.125 201.054688 145.980469 201.054688 153.207031 C 201.054688 160.433594 195.226562 166.289062 188.035156 166.289062 Z M 188.035156 166.289062"/></g><path fill="#FAD02C" d="M 195.210938 153.207031 C 195.210938 153.679688 195.164062 154.148438 195.074219 154.613281 C 194.980469 155.078125 194.84375 155.527344 194.664062 155.964844 C 194.484375 156.402344 194.261719 156.820312 194 157.210938 C 193.738281 157.605469 193.441406 157.96875 193.109375 158.304688 C 192.777344 158.640625 192.414062 158.9375 192.019531 159.203125 C 191.628906 159.464844 191.214844 159.6875 190.78125 159.867188 C 190.34375 160.050781 189.894531 160.1875 189.433594 160.277344 C 188.972656 160.371094 188.503906 160.417969 188.035156 160.417969 C 187.5625 160.417969 187.097656 160.371094 186.632812 160.277344 C 186.171875 160.1875 185.722656 160.050781 185.289062 159.867188 C 184.851562 159.6875 184.4375 159.464844 184.046875 159.203125 C 183.65625 158.9375 183.292969 158.640625 182.960938 158.304688 C 182.625 157.96875 182.328125 157.605469 182.066406 157.210938 C 181.804688 156.820312 181.585938 156.402344 181.402344 155.964844 C 181.222656 155.527344 181.085938 155.078125 180.996094 154.613281 C 180.902344 154.148438 180.859375 153.679688 180.859375 153.207031 C 180.859375 152.734375 180.902344 152.265625 180.996094 151.800781 C 181.085938 151.335938 181.222656 150.882812 181.402344 150.449219 C 181.585938 150.011719 181.804688 149.59375 182.066406 149.199219 C 182.328125 148.808594 182.625 148.441406 182.960938 148.109375 C 183.292969 147.773438 183.65625 147.472656 184.046875 147.210938 C 184.4375 146.949219 184.851562 146.726562 185.289062 146.546875 C 185.722656 146.363281 186.171875 146.226562 186.632812 146.132812 C 187.097656 146.042969 187.5625 145.996094 188.035156 145.996094 C 188.503906 145.996094 188.972656 146.042969 189.433594 146.132812 C 189.894531 146.226562 190.34375 146.363281 190.78125 146.546875 C 191.214844 146.726562 191.628906 146.949219 192.019531 147.210938 C 192.414062 147.472656 192.777344 147.773438 193.109375 148.109375 C 193.441406 148.441406 193.738281 148.808594 194 149.199219 C 194.261719 149.59375 194.484375 150.011719 194.664062 150.449219 C 194.84375 150.882812 194.980469 151.335938 195.074219 151.800781 C 195.164062 152.265625 195.210938 152.734375 195.210938 153.207031 Z M 195.210938 153.207031"/><g clip-path="url(#b)"><path fill="#FAD02C" d="M 226.902344 218.136719 L 220.375 176.941406 C 219.859375 173.695312 217.078125 171.308594 213.804688 171.308594 L 206.570312 171.308594 C 205.765625 173.003906 204.910156 174.71875 204.03125 176.433594 L 208.960938 176.433594 C 211.621094 176.433594 213.882812 178.371094 214.296875 181.007812 L 215.851562 190.8125 L 213.453125 190.8125 C 208.121094 190.8125 203.035156 189.191406 198.75 186.191406 C 197.910156 187.679688 197.078125 189.121094 196.273438 190.5 C 196.734375 190.816406 197.207031 191.121094 197.6875 191.410156 L 186.9375 203.949219 L 185.660156 201.972656 C 183.28125 198.304688 179.253906 196.113281 174.898438 196.113281 L 168.515625 196.113281 L 178.4375 188.152344 C 177.628906 186.742188 176.800781 185.28125 175.96875 183.789062 L 160.613281 196.113281 L 159.378906 196.113281 L 161.773438 181.007812 C 162.191406 178.371094 164.453125 176.433594 167.109375 176.433594 L 172.039062 176.433594 C 171.160156 174.71875 170.308594 173.003906 169.503906 171.308594 L 162.265625 171.308594 C 158.996094 171.308594 156.210938 173.699219 155.695312 176.941406 L 149.167969 218.136719 C 148.527344 222.195312 151.648438 225.871094 155.738281 225.871094 L 220.332031 225.871094 C 224.421875 225.871094 227.546875 222.195312 226.902344 218.136719 Z M 202.257812 193.664062 C 205.773438 195.046875 209.558594 195.769531 213.449219 195.769531 L 216.636719 195.769531 L 218.257812 206 L 191.683594 206 Z M 161.808594 220.746094 C 158.480469 220.746094 155.949219 217.757812 156.472656 214.460938 L 158.59375 201.066406 L 174.894531 201.066406 C 177.582031 201.066406 180.058594 202.417969 181.527344 204.675781 L 191.949219 220.746094 Z M 214.261719 220.746094 L 197.832031 220.746094 L 191.480469 210.953125 L 219.039062 210.953125 L 219.597656 214.460938 C 220.121094 217.757812 217.585938 220.746094 214.261719 220.746094 Z M 214.261719 220.746094"/></g></svg>