<?xml version="1.0" standalone="no"?>
<!DOCTYPE svg PUBLIC "-//W3C//DTD SVG 20010904//EN"
 "http://www.w3.org/TR/2001/REC-SVG-20010904/DTD/svg10.dtd">
<svg version="1.0" xmlns="http://www.w3.org/2000/svg"
 width="500.000000pt" height="500.000000pt" viewBox="0 0 500.000000 500.000000"
 preserveAspectRatio="xMidYMid meet">
<metadata>
Created by potrace 1.16, written by Peter Selinger 2001-2019
</metadata>
<g transform="translate(0.000000,500.000000) scale(0.100000,-0.100000)"
fill="#000000" stroke="none">
<path d="M2305 3455 c-360 -80 -632 -333 -742 -692 -25 -81 -27 -101 -27 -263
0 -162 2 -182 27 -263 105 -343 346 -579 692 -679 69 -20 103 -23 245 -23 142
0 176 3 245 23 344 99 587 338 691 677 26 84 28 103 28 265 0 162 -2 182 -27
263 -111 362 -386 616 -750 693 -85 17 -299 17 -382 -1z m333 -231 c145 -72
193 -226 124 -399 -35 -88 -159 -321 -198 -372 -26 -34 -58 -42 -94 -23 -31
16 -176 285 -226 418 -59 156 -2 311 139 381 64 32 186 29 255 -5z m-363 -534
c21 -40 20 -40 -24 -40 -67 0 -88 -28 -106 -140 -23 -144 -24 -142 62 -73 32
26 76 62 99 80 l40 32 17 -29 17 -28 -61 -49 -62 -48 61 -7 c73 -8 113 -27
148 -72 l27 -34 69 80 c37 44 66 84 63 88 -3 5 1 22 9 38 l15 29 52 -25 c34
-17 74 -28 114 -30 l62 -4 -13 78 c-8 43 -20 84 -28 92 -7 8 -37 17 -65 20
l-51 7 20 33 c18 30 24 32 72 32 79 0 114 -25 127 -92 37 -182 90 -560 81
-582 -21 -57 -14 -56 -518 -56 l-463 0 -24 25 c-17 16 -25 35 -25 57 0 18 20
158 44 311 53 333 54 335 173 336 48 1 54 -1 68 -29z"/>
<path d="M2440 3119 c-110 -44 -139 -197 -53 -282 59 -59 156 -68 222 -20 34
25 71 99 71 142 0 118 -129 204 -240 160z m132 -96 c30 -29 37 -77 18 -114
-12 -22 -60 -49 -89 -49 -29 0 -79 46 -86 80 -7 32 15 83 42 99 34 20 85 13
115 -16z"/>
<path d="M2626 2337 l-69 -82 173 -3 c95 -1 174 -1 176 1 2 1 -2 33 -8 70
l-11 67 -46 0 c-42 0 -94 9 -131 23 -10 4 -38 -21 -84 -76z"/>
<path d="M2102 2237 c-26 -183 -35 -177 240 -177 115 0 208 2 208 5 0 3 -32
55 -71 116 -44 67 -82 115 -100 124 -20 11 -62 15 -147 15 l-118 0 -12 -83z"/>
<path d="M2560 2183 c0 -3 17 -33 38 -65 l37 -58 129 2 c126 3 129 4 148 29
15 20 18 34 13 62 l-7 37 -179 0 c-99 0 -179 -3 -179 -7z"/>
</g>
</svg>
