<svg id="svg" version="1.1" xmlns="http://www.w3.org/2000/svg" xmlns:xlink="http://www.w3.org/1999/xlink" width="400" height="400" viewBox="0, 0, 400,400"><g id="svgg"><path id="path0" d="M192.400 104.639 C 150.788 108.311,116.873 131.883,100.217 168.710 C 71.256 232.741,109.355 307.563,177.967 321.402 C 257.598 337.463,326.435 264.692,305.990 186.060 C 292.892 135.682,243.315 100.146,192.400 104.639 M209.634 129.621 C 228.767 135.743,237.865 153.861,231.414 173.000 C 228.982 180.215,222.371 194.165,216.866 203.700 C 216.390 204.525,215.640 205.830,215.200 206.600 C 214.760 207.370,214.062 208.585,213.649 209.300 C 213.236 210.015,211.768 212.580,210.387 215.000 C 205.885 222.889,202.239 224.971,197.318 222.460 C 195.765 221.668,192.800 218.668,192.800 217.890 C 192.800 217.688,192.461 217.046,192.047 216.462 C 191.633 215.878,190.935 214.770,190.496 214.000 C 190.057 213.230,188.067 209.766,186.073 206.302 C 182.174 199.528,175.148 185.712,173.612 181.800 C 173.093 180.480,172.536 179.220,172.373 179.000 C 171.951 178.432,169.213 170.225,168.568 167.600 C 167.920 164.956,167.831 156.945,168.426 154.646 C 171.248 143.733,177.345 136.109,186.800 131.670 C 192.163 129.152,193.346 128.911,200.634 128.852 C 206.118 128.808,207.447 128.921,209.634 129.621 M194.400 144.080 C 173.988 151.859,179.077 181.810,200.800 181.743 C 222.516 181.676,227.506 151.707,207.075 144.062 C 203.865 142.862,197.574 142.870,194.400 144.080 M203.200 151.729 C 214.674 154.874,214.458 170.298,202.900 173.155 C 195.690 174.937,188.443 167.620,190.167 160.300 C 191.667 153.926,197.418 150.144,203.200 151.729 M174.750 193.038 C 177.051 197.833,177.191 197.600,171.996 197.600 C 164.755 197.600,162.296 199.445,161.245 205.667 C 159.913 213.557,158.551 222.060,158.167 224.900 C 157.747 227.994,158.656 227.481,170.747 217.800 C 176.929 212.850,182.225 208.800,182.514 208.800 C 182.959 208.800,186.400 214.237,186.400 214.940 C 186.400 215.071,183.205 217.747,179.300 220.888 L 172.200 226.600 178.640 226.852 C 182.328 226.997,185.746 227.335,186.640 227.644 C 190.880 229.111,194.309 231.662,197.088 235.417 C 198.140 236.838,199.180 237.989,199.400 237.976 C 199.758 237.954,212.953 222.766,214.380 220.732 C 214.894 220.000,214.883 219.850,214.280 219.409 C 213.287 218.683,213.432 217.831,215.032 214.969 C 216.869 211.685,216.688 211.741,219.660 213.530 C 225.047 216.773,230.435 218.311,237.700 218.682 C 242.988 218.952,242.688 219.157,242.035 215.720 C 241.835 214.664,241.469 212.450,241.221 210.800 C 239.873 201.799,239.084 199.986,235.857 198.469 C 234.310 197.742,233.291 197.600,229.604 197.600 C 224.409 197.600,224.549 197.833,226.850 193.038 L 228.500 189.600 234.903 189.600 C 243.700 189.600,246.634 190.811,248.687 195.292 C 249.403 196.853,249.667 198.115,250.802 205.400 C 251.279 208.462,252.710 217.473,253.215 220.600 C 253.428 221.920,253.966 225.340,254.410 228.200 C 254.854 231.060,255.380 234.390,255.579 235.600 C 255.956 237.901,256.461 241.083,257.195 245.800 C 257.957 250.695,258.327 252.927,258.849 255.800 C 260.364 264.126,258.216 269.703,252.928 271.171 C 250.795 271.764,150.805 271.764,148.672 271.171 C 143.489 269.732,141.202 264.013,142.684 256.200 C 143.169 253.645,143.495 251.663,144.785 243.400 C 145.232 240.540,145.772 237.120,145.985 235.800 C 146.441 232.980,147.862 224.037,148.400 220.600 C 149.507 213.532,150.459 207.552,150.788 205.600 C 150.992 204.390,151.375 201.960,151.640 200.200 C 152.914 191.727,155.747 189.707,166.450 189.641 L 173.100 189.600 174.750 193.038 M214.775 232.224 C 210.719 236.967,207.340 241.017,207.267 241.224 C 207.185 241.455,214.615 241.600,226.602 241.600 L 246.070 241.600 245.817 239.900 C 245.678 238.965,245.218 236.040,244.795 233.400 C 244.372 230.760,243.975 228.150,243.913 227.600 L 243.800 226.600 237.400 226.345 C 231.304 226.103,227.421 225.442,223.874 224.044 C 223.255 223.800,222.613 223.600,222.449 223.600 C 222.284 223.600,218.831 227.481,214.775 232.224 M156.592 234.900 C 156.414 235.387,155.943 238.330,155.199 243.600 C 154.997 245.030,154.558 247.730,154.223 249.600 C 152.735 257.913,153.863 261.395,158.697 263.415 C 160.685 264.245,206.201 264.299,205.883 263.471 C 205.681 262.945,203.193 259.016,195.072 246.400 C 187.283 234.298,187.507 234.400,168.768 234.400 C 159.538 234.400,156.733 234.515,156.592 234.900 M206.800 249.853 C 206.800 250.206,207.991 252.144,212.115 258.500 L 215.683 264.000 228.593 264.000 C 243.868 264.000,245.426 263.616,247.450 259.350 C 248.119 257.941,248.108 251.145,247.435 250.057 C 247.131 249.565,206.800 249.362,206.800 249.853 " stroke="none" fill="#353553" fill-rule="evenodd"></path><path id="path1" d="M195.400 129.051 C 194.960 129.161,193.544 129.512,192.253 129.829 C 178.674 133.173,168.002 146.931,168.000 161.094 C 167.999 169.689,174.518 185.550,186.949 207.200 C 189.791 212.150,192.550 216.955,193.080 217.878 C 195.509 222.108,199.779 224.087,203.303 222.615 C 206.096 221.448,207.112 220.196,211.434 212.600 C 211.684 212.160,213.552 208.920,215.584 205.400 C 219.089 199.330,226.562 184.680,228.133 180.800 C 228.534 179.810,229.052 178.550,229.285 178.000 C 229.517 177.450,229.858 176.640,230.042 176.200 C 230.543 175.004,232.632 168.075,233.148 165.894 C 236.460 151.917,224.704 134.059,209.361 129.760 C 207.044 129.111,197.158 128.609,195.400 129.051 M209.538 144.914 C 214.311 147.299,217.192 150.636,219.541 156.498 C 223.139 165.479,216.866 177.797,207.000 181.122 C 189.911 186.881,174.760 168.075,183.852 152.390 C 188.886 143.705,200.409 140.352,209.538 144.914 M198.367 151.956 C 190.818 153.518,187.667 163.492,192.854 169.400 C 199.370 176.821,211.283 172.296,211.283 162.400 C 211.283 155.502,205.159 150.550,198.367 151.956 M159.598 190.169 C 154.685 191.526,152.804 194.266,151.613 201.800 C 151.369 203.340,151.008 205.590,150.810 206.800 C 150.612 208.010,150.248 210.350,150.000 212.000 C 149.752 213.650,149.381 216.035,149.175 217.300 C 148.969 218.565,148.631 220.635,148.425 221.900 C 148.219 223.165,147.848 225.550,147.600 227.200 C 147.352 228.850,146.981 231.235,146.775 232.500 C 146.569 233.765,146.231 235.835,146.025 237.100 C 145.819 238.365,145.448 240.750,145.200 242.400 C 144.952 244.050,144.588 246.390,144.390 247.600 C 144.192 248.810,143.832 251.060,143.591 252.600 C 143.349 254.140,142.982 256.269,142.776 257.331 C 141.560 263.576,143.345 268.323,147.774 270.620 C 149.456 271.493,252.144 271.493,253.826 270.620 C 258.249 268.326,260.021 263.626,258.841 257.320 C 258.643 256.264,258.277 254.140,258.026 252.600 C 257.775 251.060,257.408 248.810,257.210 247.600 C 257.012 246.390,256.648 244.050,256.400 242.400 C 256.152 240.750,255.781 238.365,255.575 237.100 C 255.369 235.835,255.031 233.765,254.825 232.500 C 254.619 231.235,254.248 228.850,254.000 227.200 C 253.752 225.550,253.381 223.165,253.175 221.900 C 252.969 220.635,252.631 218.565,252.425 217.300 C 252.219 216.035,251.848 213.650,251.600 212.000 C 251.352 210.350,250.988 208.010,250.790 206.800 C 250.592 205.590,250.231 203.340,249.987 201.800 C 248.421 191.893,246.106 190.008,235.136 189.704 L 228.872 189.531 227.236 192.880 C 225.059 197.336,224.886 197.072,230.107 197.272 C 238.132 197.579,239.733 199.298,241.214 209.200 C 241.460 210.850,241.828 212.955,242.031 213.877 C 242.234 214.800,242.400 216.375,242.400 217.377 L 242.400 219.200 239.500 219.193 C 235.533 219.183,228.846 218.025,225.800 216.819 C 223.731 216.001,219.851 214.058,218.600 213.214 C 216.965 212.112,217.072 212.048,215.235 215.235 C 213.333 218.534,213.357 218.414,214.422 219.326 C 215.433 220.192,216.075 219.280,206.800 230.149 C 199.529 238.669,198.837 239.220,197.986 237.167 C 195.448 231.038,187.734 227.213,177.900 227.205 C 174.354 227.202,172.000 227.045,172.000 226.812 C 172.000 226.598,175.150 223.893,179.000 220.800 C 182.850 217.707,186.000 215.072,186.000 214.944 C 186.000 214.616,183.213 209.472,182.814 209.062 C 182.632 208.876,177.291 212.881,170.944 217.962 C 157.749 228.524,157.067 228.857,157.951 224.294 C 158.175 223.142,158.558 220.850,158.804 219.200 C 159.049 217.550,159.412 215.210,159.610 214.000 C 159.808 212.790,160.167 210.540,160.407 209.000 C 161.932 199.243,163.507 197.578,171.493 197.272 C 176.711 197.072,176.539 197.332,174.381 192.914 L 172.762 189.600 167.081 189.636 C 163.901 189.656,160.607 189.891,159.598 190.169 M225.400 224.216 C 229.843 225.699,234.423 226.400,239.673 226.400 L 243.853 226.400 244.311 228.900 C 244.563 230.275,244.972 232.750,245.220 234.400 C 245.468 236.050,245.840 238.286,246.046 239.370 C 246.331 240.865,246.298 241.418,245.911 241.664 C 245.209 242.109,207.940 242.076,207.234 241.630 C 206.184 240.965,221.963 222.933,223.166 223.424 C 223.515 223.566,224.520 223.923,225.400 224.216 M186.000 235.472 C 188.577 236.721,190.249 238.481,193.163 243.013 C 195.671 246.913,203.628 259.202,205.471 262.022 C 205.982 262.803,206.400 263.568,206.400 263.722 C 206.400 263.875,195.710 264.000,182.645 264.000 L 158.890 264.000 156.945 262.700 C 153.282 260.252,152.539 256.919,153.960 249.314 C 154.412 246.899,155.040 243.063,155.617 239.200 C 155.864 237.550,156.146 235.788,156.244 235.285 L 156.423 234.371 170.311 234.485 C 183.643 234.595,184.272 234.635,186.000 235.472 M247.335 249.792 C 247.707 250.165,248.031 251.640,248.209 253.773 C 248.617 258.665,247.759 260.756,244.496 262.825 L 242.643 264.000 229.022 263.992 L 215.400 263.984 211.800 258.540 C 209.820 255.545,208.110 252.894,208.000 252.648 C 207.890 252.401,207.469 251.713,207.066 251.118 C 206.662 250.522,206.447 249.847,206.589 249.618 C 207.042 248.885,246.597 249.054,247.335 249.792 " stroke="none" fill="#f9d12c" fill-rule="evenodd"></path><path id="path2" d="M0.000 200.000 L 0.000 400.000 200.000 400.000 L 400.000 400.000 400.000 200.000 L 400.000 0.000 200.000 0.000 L 0.000 0.000 0.000 200.000 M212.600 104.428 C 288.033 112.534,332.768 195.094,298.631 263.200 C 261.839 336.601,161.245 345.659,111.716 280.032 C 83.326 242.415,82.482 187.256,109.733 150.490 C 128.209 125.564,151.605 110.755,181.200 105.255 C 189.353 103.740,202.882 103.383,212.600 104.428 " stroke="none" fill="#fbfbfb" fill-rule="evenodd"></path><path id="path3" d="M191.800 104.363 C 190.700 104.493,194.390 104.600,200.000 104.600 C 205.610 104.600,209.210 104.483,208.000 104.340 C 205.312 104.021,194.549 104.037,191.800 104.363 M183.400 105.217 C 182.668 105.414,183.369 105.453,185.200 105.318 C 186.850 105.196,188.275 105.029,188.367 104.948 C 188.677 104.672,184.608 104.893,183.400 105.217 M211.633 104.948 C 211.725 105.029,213.150 105.196,214.800 105.318 C 216.631 105.453,217.332 105.414,216.600 105.217 C 215.392 104.893,211.323 104.672,211.633 104.948 M179.000 106.000 L 178.200 106.344 179.000 106.325 C 179.440 106.314,180.340 106.168,181.000 106.000 L 182.200 105.695 181.000 105.675 C 180.340 105.665,179.440 105.811,179.000 106.000 M219.000 106.000 C 219.660 106.168,220.560 106.314,221.000 106.325 L 221.800 106.344 221.000 106.000 C 220.560 105.811,219.660 105.665,219.000 105.675 L 217.800 105.695 219.000 106.000 M175.400 106.800 C 174.381 107.238,175.432 107.238,176.800 106.800 C 177.604 106.543,177.643 106.477,177.000 106.468 C 176.560 106.462,175.840 106.611,175.400 106.800 M223.200 106.800 C 224.568 107.238,225.619 107.238,224.600 106.800 C 224.160 106.611,223.440 106.462,223.000 106.468 C 222.357 106.477,222.396 106.543,223.200 106.800 M171.800 107.600 C 170.781 108.038,171.832 108.038,173.200 107.600 C 174.004 107.343,174.043 107.277,173.400 107.268 C 172.960 107.262,172.240 107.411,171.800 107.600 M226.800 107.600 C 228.168 108.038,229.219 108.038,228.200 107.600 C 227.760 107.411,227.040 107.262,226.600 107.268 C 225.957 107.277,225.996 107.343,226.800 107.600 M169.200 108.400 C 168.667 108.745,168.667 108.788,169.200 108.788 C 169.530 108.788,170.070 108.613,170.400 108.400 C 170.933 108.055,170.933 108.012,170.400 108.012 C 170.070 108.012,169.530 108.187,169.200 108.400 M229.600 108.400 C 229.930 108.613,230.470 108.788,230.800 108.788 C 231.333 108.788,231.333 108.745,230.800 108.400 C 230.470 108.187,229.930 108.012,229.600 108.012 C 229.067 108.012,229.067 108.055,229.600 108.400 M164.000 110.000 C 163.205 110.514,164.204 110.514,165.400 110.000 L 166.200 109.656 165.400 109.634 C 164.960 109.622,164.330 109.787,164.000 110.000 M234.600 110.000 C 235.796 110.514,236.795 110.514,236.000 110.000 C 235.670 109.787,235.040 109.622,234.600 109.634 L 233.800 109.656 234.600 110.000 M160.123 111.345 C 157.298 112.536,156.854 113.084,159.600 111.992 C 163.251 110.539,163.437 110.450,162.800 110.460 C 162.470 110.465,161.265 110.864,160.123 111.345 M236.833 110.535 C 237.219 110.847,240.400 111.977,240.400 111.802 C 240.400 111.563,237.651 110.400,237.084 110.400 C 236.855 110.400,236.742 110.461,236.833 110.535 M150.071 115.963 C 147.580 117.248,145.341 118.499,145.097 118.743 C 144.731 119.109,154.628 114.191,155.167 113.740 C 155.915 113.112,153.866 114.007,150.071 115.963 M249.400 116.116 C 252.040 117.484,254.740 118.939,255.400 119.349 L 256.600 120.095 255.600 119.247 C 254.562 118.366,245.511 113.589,244.930 113.615 C 244.749 113.623,246.760 114.748,249.400 116.116 M141.562 120.841 C 139.174 122.371,137.364 123.777,138.800 122.987 C 140.314 122.155,144.400 119.511,144.400 119.364 C 144.400 119.056,144.123 119.200,141.562 120.841 M257.566 120.721 C 259.101 121.800,261.600 123.261,261.600 123.079 C 261.600 122.827,257.257 119.997,256.906 120.021 C 256.738 120.033,257.035 120.348,257.566 120.721 M135.975 124.522 C 133.497 126.256,132.000 127.469,132.000 127.742 C 132.000 127.945,136.846 124.437,137.780 123.558 C 138.516 122.865,137.781 123.258,135.975 124.522 M262.200 123.502 C 262.973 124.302,268.000 127.965,268.000 127.728 C 268.000 127.596,267.685 127.238,267.300 126.933 C 266.060 125.948,261.786 123.073,262.200 123.502 M128.800 130.261 C 122.174 135.965,114.186 144.515,111.479 148.800 C 110.860 149.781,112.801 147.556,115.918 143.714 C 118.844 140.107,124.909 133.984,129.400 130.103 C 130.720 128.962,131.710 128.027,131.600 128.026 C 131.490 128.024,130.230 129.029,128.800 130.261 M270.600 130.064 C 275.614 134.521,281.271 140.248,284.082 143.714 C 287.199 147.556,289.140 149.781,288.521 148.800 C 286.054 144.894,275.124 133.344,270.400 129.650 L 268.200 127.930 270.600 130.064 M193.400 129.219 C 192.842 129.471,193.085 129.507,194.200 129.338 C 195.080 129.204,195.875 129.028,195.967 128.947 C 196.310 128.644,194.168 128.871,193.400 129.219 M205.633 128.947 C 205.725 129.028,206.520 129.204,207.400 129.338 C 208.515 129.507,208.758 129.471,208.200 129.219 C 207.432 128.871,205.290 128.644,205.633 128.947 M219.600 134.518 C 219.600 134.620,220.447 135.397,221.481 136.245 C 222.516 137.093,223.234 137.578,223.076 137.323 C 222.740 136.779,219.600 134.245,219.600 134.518 M227.199 142.300 C 227.722 143.015,228.213 143.600,228.289 143.600 C 228.593 143.600,227.601 142.100,226.945 141.567 C 226.513 141.216,226.610 141.496,227.199 142.300 M199.500 143.089 C 200.215 143.178,201.385 143.178,202.100 143.089 C 202.815 143.001,202.230 142.928,200.800 142.928 C 199.370 142.928,198.785 143.001,199.500 143.089 M187.483 148.100 C 186.060 149.509,185.840 149.796,186.979 148.758 C 188.091 147.745,189.445 146.620,189.989 146.258 C 190.533 145.896,190.760 145.600,190.493 145.600 C 190.226 145.600,188.871 146.725,187.483 148.100 M211.378 146.094 C 211.806 146.372,213.066 147.404,214.178 148.387 L 216.200 150.173 214.600 148.454 C 213.720 147.508,212.460 146.476,211.800 146.161 C 211.140 145.846,210.950 145.816,211.378 146.094 M109.425 151.500 C 107.983 153.481,105.991 156.895,106.683 156.200 C 107.307 155.574,111.212 149.600,110.999 149.600 C 110.894 149.600,110.185 150.455,109.425 151.500 M290.841 152.665 C 293.082 156.047,294.003 157.198,293.188 155.600 C 292.413 154.080,289.659 150.084,289.184 149.790 C 288.953 149.647,289.698 150.941,290.841 152.665 M199.096 151.535 C 198.709 151.688,199.476 151.813,200.800 151.813 C 202.124 151.813,202.891 151.688,202.504 151.535 C 202.117 151.382,201.350 151.256,200.800 151.256 C 200.250 151.256,199.483 151.382,199.096 151.535 M232.056 152.000 C 232.056 152.330,232.211 152.960,232.400 153.400 C 232.617 153.904,232.744 153.978,232.744 153.600 C 232.744 153.270,232.589 152.640,232.400 152.200 C 232.183 151.696,232.056 151.622,232.056 152.000 M193.580 154.266 C 192.688 155.072,191.773 156.107,191.547 156.566 C 191.320 157.024,191.607 156.822,192.184 156.116 C 192.761 155.410,193.810 154.377,194.516 153.821 C 195.222 153.264,195.666 152.807,195.501 152.804 C 195.337 152.802,194.472 153.459,193.580 154.266 M207.084 153.821 C 207.790 154.377,208.839 155.410,209.416 156.116 C 209.993 156.822,210.280 157.024,210.053 156.566 C 209.611 155.668,206.592 152.797,206.099 152.804 C 205.934 152.807,206.378 153.264,207.084 153.821 M168.200 155.600 C 168.048 156.291,168.007 156.941,168.109 157.042 C 168.211 157.144,168.409 156.653,168.550 155.950 C 168.883 154.283,168.560 153.960,168.200 155.600 M232.887 155.400 C 232.891 155.840,233.032 156.740,233.200 157.400 C 233.474 158.478,233.506 158.498,233.513 157.600 C 233.517 157.050,233.376 156.150,233.200 155.600 C 232.949 154.816,232.881 154.773,232.887 155.400 M105.414 157.835 C 105.041 158.404,104.805 158.938,104.889 159.022 C 104.973 159.107,105.358 158.641,105.744 157.988 C 106.606 156.528,106.348 156.409,105.414 157.835 M293.960 157.400 C 294.634 158.705,295.188 159.428,295.185 159.000 C 295.183 158.780,294.814 158.150,294.364 157.600 C 293.821 156.936,293.685 156.869,293.960 157.400 M181.340 162.000 C 181.340 163.870,181.409 164.635,181.493 163.700 C 181.577 162.765,181.577 161.235,181.493 160.300 C 181.409 159.365,181.340 160.130,181.340 162.000 M103.814 160.635 C 103.441 161.204,103.227 161.761,103.339 161.872 C 103.450 161.983,103.829 161.518,104.181 160.837 C 104.959 159.333,104.744 159.215,103.814 160.635 M295.786 160.700 C 296.135 161.415,296.506 162.000,296.610 162.000 C 297.008 162.000,296.752 161.363,295.967 160.400 L 295.152 159.400 295.786 160.700 M220.131 162.600 C 220.133 164.140,220.205 164.721,220.292 163.891 C 220.379 163.061,220.377 161.801,220.289 161.091 C 220.200 160.381,220.129 161.060,220.131 162.600 M168.068 165.200 C 168.088 166.239,168.718 167.946,168.732 167.000 C 168.738 166.560,168.589 165.840,168.400 165.400 C 168.189 164.910,168.061 164.832,168.068 165.200 M233.029 165.829 C 232.881 166.415,232.838 166.972,232.932 167.066 C 233.027 167.160,233.224 166.758,233.371 166.171 C 233.519 165.585,233.562 165.028,233.468 164.934 C 233.373 164.840,233.176 165.242,233.029 165.829 M99.781 168.657 C 97.743 173.378,96.802 175.759,96.817 176.155 C 96.827 176.400,97.427 175.160,98.150 173.400 C 98.874 171.640,99.780 169.598,100.163 168.863 C 100.546 168.127,100.766 167.433,100.653 167.320 C 100.540 167.206,100.147 167.808,99.781 168.657 M299.314 167.600 C 300.189 169.860,302.391 174.510,302.395 174.104 C 302.401 173.466,299.986 167.927,299.472 167.400 C 299.216 167.137,299.162 167.206,299.314 167.600 M191.204 167.699 C 191.197 168.192,194.068 171.211,194.966 171.653 C 195.424 171.880,195.222 171.593,194.516 171.016 C 193.810 170.439,192.777 169.390,192.221 168.684 C 191.664 167.978,191.207 167.534,191.204 167.699 M208.121 169.847 C 206.977 171.034,206.363 171.834,206.755 171.624 C 207.474 171.239,210.400 168.169,210.400 167.799 C 210.400 167.490,210.329 167.553,208.121 169.847 M217.354 172.488 C 216.988 173.197,215.684 174.862,214.457 176.188 L 212.226 178.600 214.456 176.469 C 216.402 174.611,218.849 171.200,218.236 171.200 C 218.117 171.200,217.721 171.780,217.354 172.488 M199.529 173.351 C 200.294 173.571,201.306 173.571,202.071 173.351 C 203.168 173.037,202.993 172.987,200.800 172.987 C 198.607 172.987,198.432 173.037,199.529 173.351 M95.815 178.615 C 95.430 179.624,95.204 180.537,95.313 180.646 C 95.421 180.755,95.800 179.993,96.154 178.954 C 96.990 176.499,96.725 176.234,95.815 178.615 M303.450 177.600 C 303.825 179.105,304.734 181.084,304.738 180.400 C 304.739 180.070,304.394 179.080,303.971 178.200 C 303.548 177.320,303.314 177.050,303.450 177.600 M94.629 182.229 C 94.481 182.815,94.438 183.372,94.532 183.466 C 94.627 183.560,94.824 183.158,94.971 182.571 C 95.119 181.985,95.162 181.428,95.068 181.334 C 94.973 181.240,94.776 181.642,94.629 182.229 M304.856 181.600 C 304.856 181.930,305.011 182.560,305.200 183.000 C 305.417 183.504,305.544 183.578,305.544 183.200 C 305.544 182.870,305.389 182.240,305.200 181.800 C 304.983 181.296,304.856 181.222,304.856 181.600 M199.100 182.153 C 200.109 182.367,201.491 182.367,202.500 182.153 C 204.004 181.834,203.809 181.793,200.800 181.793 C 197.791 181.793,197.596 181.834,199.100 182.153 M93.800 185.200 C 93.648 185.891,93.607 186.541,93.709 186.642 C 93.811 186.744,94.009 186.253,94.150 185.550 C 94.483 183.883,94.160 183.560,93.800 185.200 M305.844 185.400 C 306.173 186.871,306.402 187.190,306.394 186.167 C 306.391 185.745,306.205 185.130,305.982 184.800 C 305.685 184.362,305.648 184.524,305.844 185.400 M93.000 188.400 C 92.848 189.091,92.807 189.741,92.909 189.842 C 93.011 189.944,93.209 189.453,93.350 188.750 C 93.683 187.083,93.360 186.760,93.000 188.400 M306.468 187.600 C 306.488 188.639,307.118 190.346,307.132 189.400 C 307.138 188.960,306.989 188.240,306.800 187.800 C 306.589 187.310,306.461 187.232,306.468 187.600 M159.000 190.000 C 157.981 190.438,159.032 190.438,160.400 190.000 C 161.204 189.743,161.243 189.677,160.600 189.668 C 160.160 189.662,159.440 189.811,159.000 190.000 M241.200 190.000 C 242.568 190.438,243.619 190.438,242.600 190.000 C 242.160 189.811,241.440 189.662,241.000 189.668 C 240.357 189.677,240.396 189.743,241.200 190.000 M92.276 191.210 C 92.130 191.755,92.027 192.650,92.046 193.200 C 92.071 193.918,92.184 193.757,92.449 192.627 C 92.855 190.895,92.700 189.625,92.276 191.210 M307.287 191.000 C 307.291 191.440,307.432 192.340,307.600 193.000 C 307.874 194.078,307.906 194.098,307.913 193.200 C 307.917 192.650,307.776 191.750,307.600 191.200 C 307.349 190.416,307.281 190.373,307.287 191.000 M154.778 192.700 L 153.400 194.200 154.900 192.822 C 155.725 192.063,156.400 191.388,156.400 191.322 C 156.400 191.016,156.062 191.304,154.778 192.700 M246.400 192.600 C 247.146 193.370,247.847 194.000,247.957 194.000 C 248.067 194.000,247.546 193.370,246.800 192.600 C 246.054 191.830,245.353 191.200,245.243 191.200 C 245.133 191.200,245.654 191.830,246.400 192.600 M91.400 196.400 C 91.245 197.528,91.202 198.536,91.306 198.639 C 91.409 198.742,91.616 197.900,91.767 196.767 C 91.917 195.634,91.959 194.626,91.861 194.528 C 91.763 194.429,91.555 195.272,91.400 196.400 M308.272 196.600 C 308.399 197.700,308.569 198.675,308.651 198.767 C 308.932 199.082,308.720 196.599,308.380 195.600 C 308.151 194.926,308.116 195.251,308.272 196.600 M176.000 196.586 C 176.000 197.051,175.198 197.198,172.100 197.302 L 168.200 197.433 172.300 197.516 C 176.161 197.595,176.400 197.553,176.400 196.800 C 176.400 196.360,176.310 196.000,176.200 196.000 C 176.090 196.000,176.000 196.263,176.000 196.586 M225.246 196.700 C 225.201 197.583,225.278 197.598,229.300 197.516 L 233.400 197.433 229.527 197.302 C 226.272 197.193,225.624 197.062,225.473 196.486 C 225.342 195.987,225.280 196.045,225.246 196.700 M151.440 200.840 C 151.293 201.757,151.252 202.585,151.347 202.680 C 151.442 202.776,151.646 202.110,151.800 201.200 C 151.954 200.290,151.996 199.462,151.893 199.360 C 151.790 199.257,151.587 199.923,151.440 200.840 M249.687 200.000 C 249.683 200.550,249.824 201.450,250.000 202.000 C 250.431 203.344,250.431 201.892,250.000 200.200 C 249.726 199.122,249.694 199.102,249.687 200.000 M90.659 201.488 C 90.521 202.319,90.431 203.990,90.458 205.200 C 90.500 207.024,90.567 206.790,90.851 203.830 C 91.206 200.142,91.098 198.830,90.659 201.488 M309.097 203.400 C 309.215 205.380,309.376 207.075,309.456 207.167 C 309.735 207.490,309.550 202.980,309.218 201.400 C 308.990 200.312,308.951 200.952,309.097 203.400 M183.800 202.400 C 184.141 203.060,184.511 203.600,184.621 203.600 C 184.731 203.600,184.541 203.060,184.200 202.400 C 183.859 201.740,183.489 201.200,183.379 201.200 C 183.269 201.200,183.459 201.740,183.800 202.400 M161.000 204.800 C 160.848 205.491,160.807 206.141,160.909 206.242 C 161.011 206.344,161.209 205.853,161.350 205.150 C 161.683 203.483,161.360 203.160,161.000 204.800 M185.400 205.200 C 185.741 205.860,186.111 206.400,186.221 206.400 C 186.331 206.400,186.141 205.860,185.800 205.200 C 185.459 204.540,185.089 204.000,184.979 204.000 C 184.869 204.000,185.059 204.540,185.400 205.200 M187.000 208.000 C 187.341 208.660,187.711 209.200,187.821 209.200 C 187.931 209.200,187.741 208.660,187.400 208.000 C 187.059 207.340,186.689 206.800,186.579 206.800 C 186.469 206.800,186.659 207.340,187.000 208.000 M160.222 209.822 C 160.072 210.625,160.028 211.362,160.126 211.460 C 160.224 211.557,160.427 210.981,160.578 210.178 C 160.728 209.375,160.772 208.638,160.674 208.540 C 160.576 208.443,160.373 209.019,160.222 209.822 M90.154 214.000 C 90.154 216.750,90.218 217.875,90.296 216.500 C 90.374 215.125,90.374 212.875,90.296 211.500 C 90.218 210.125,90.154 211.250,90.154 214.000 M309.754 214.000 C 309.754 216.750,309.818 217.875,309.896 216.500 C 309.974 215.125,309.974 212.875,309.896 211.500 C 309.818 210.125,309.754 211.250,309.754 214.000 M188.600 210.800 C 188.941 211.460,189.311 212.000,189.421 212.000 C 189.531 212.000,189.341 211.460,189.000 210.800 C 188.659 210.140,188.289 209.600,188.179 209.600 C 188.069 209.600,188.259 210.140,188.600 210.800 M216.502 212.500 C 215.899 213.262,215.146 214.800,215.376 214.800 C 215.488 214.800,215.866 214.245,216.217 213.568 C 216.633 212.762,217.060 212.414,217.448 212.563 C 217.782 212.691,217.935 212.618,217.797 212.395 C 217.466 211.859,216.978 211.898,216.502 212.500 M185.421 213.641 C 186.034 214.827,186.022 214.928,185.143 215.941 L 184.223 217.000 185.349 215.953 C 186.393 214.983,186.124 212.400,184.979 212.400 C 184.869 212.400,185.068 212.958,185.421 213.641 M159.400 214.800 C 159.246 215.710,159.204 216.538,159.307 216.640 C 159.410 216.743,159.613 216.077,159.760 215.160 C 159.907 214.243,159.948 213.415,159.853 213.320 C 159.758 213.224,159.554 213.890,159.400 214.800 M241.687 213.800 C 241.691 214.240,241.832 215.140,242.000 215.800 C 242.274 216.878,242.306 216.898,242.313 216.000 C 242.317 215.450,242.176 214.550,242.000 214.000 C 241.749 213.216,241.681 213.173,241.687 213.800 M149.040 216.040 C 148.893 216.957,148.852 217.785,148.947 217.880 C 149.042 217.976,149.246 217.310,149.400 216.400 C 149.554 215.490,149.596 214.662,149.493 214.560 C 149.390 214.457,149.187 215.123,149.040 216.040 M252.087 215.200 C 252.083 215.750,252.224 216.650,252.400 217.200 C 252.831 218.544,252.831 217.092,252.400 215.400 C 252.126 214.322,252.094 214.302,252.087 215.200 M209.400 216.000 C 209.059 216.660,208.869 217.200,208.979 217.200 C 209.089 217.200,209.459 216.660,209.800 216.000 C 210.141 215.340,210.331 214.800,210.221 214.800 C 210.111 214.800,209.741 215.340,209.400 216.000 M214.200 216.400 C 213.859 217.060,213.669 217.600,213.779 217.600 C 213.889 217.600,214.259 217.060,214.600 216.400 C 214.941 215.740,215.131 215.200,215.021 215.200 C 214.911 215.200,214.541 215.740,214.200 216.400 M207.819 218.764 C 207.488 219.404,206.538 220.503,205.708 221.205 C 204.879 221.908,204.560 222.300,205.000 222.076 C 206.368 221.380,209.428 217.600,208.624 217.600 C 208.512 217.600,208.150 218.124,207.819 218.764 M229.800 218.000 C 230.240 218.189,230.960 218.338,231.400 218.332 C 232.043 218.323,232.004 218.257,231.200 218.000 C 229.832 217.562,228.781 217.562,229.800 218.000 M234.600 218.834 C 236.184 219.151,242.688 219.335,242.367 219.055 C 242.275 218.975,240.130 218.820,237.600 218.712 C 234.785 218.591,233.621 218.639,234.600 218.834 M194.601 220.334 C 195.260 221.068,196.160 221.855,196.600 222.083 C 197.040 222.311,197.220 222.340,197.000 222.148 C 196.780 221.955,195.880 221.168,195.001 220.399 L 193.402 219.000 194.601 220.334 M252.880 220.200 C 252.880 220.640,253.024 221.450,253.200 222.000 C 253.454 222.792,253.520 222.833,253.520 222.200 C 253.520 221.760,253.376 220.950,253.200 220.400 C 252.946 219.608,252.880 219.567,252.880 220.200 M90.447 223.233 C 90.473 224.645,90.634 226.340,90.805 227.000 C 90.979 227.672,91.021 226.616,90.902 224.600 C 90.652 220.372,90.379 219.553,90.447 223.233 M309.276 222.444 C 309.234 223.458,309.113 225.168,309.006 226.244 L 308.812 228.200 309.222 226.600 C 309.447 225.720,309.568 224.010,309.491 222.800 C 309.355 220.656,309.349 220.647,309.276 222.444 M212.975 222.500 L 211.800 223.800 213.100 222.625 C 213.815 221.979,214.400 221.394,214.400 221.325 C 214.400 221.016,214.070 221.288,212.975 222.500 M210.575 225.300 L 209.400 226.600 210.700 225.425 C 211.415 224.779,212.000 224.194,212.000 224.125 C 212.000 223.816,211.670 224.088,210.575 225.300 M172.870 225.726 C 171.521 227.161,171.663 227.206,177.300 227.113 L 182.600 227.026 177.442 226.901 L 172.284 226.775 173.212 225.788 C 173.722 225.244,174.049 224.800,173.939 224.800 C 173.829 224.800,173.348 225.217,172.870 225.726 M157.734 225.996 C 157.804 227.049,158.973 227.587,159.673 226.887 C 159.923 226.637,159.707 226.567,159.063 226.690 C 158.264 226.843,158.027 226.694,157.868 225.940 C 157.676 225.034,157.671 225.036,157.734 225.996 M219.375 226.500 L 218.200 227.800 219.500 226.625 C 220.712 225.530,220.984 225.200,220.675 225.200 C 220.606 225.200,220.021 225.785,219.375 226.500 M231.400 226.000 C 232.060 226.168,233.050 226.305,233.600 226.305 C 234.492 226.305,234.470 226.272,233.400 226.000 C 232.740 225.832,231.750 225.695,231.200 225.695 C 230.308 225.695,230.330 225.728,231.400 226.000 M208.175 228.100 L 207.000 229.400 208.300 228.225 C 209.015 227.579,209.600 226.994,209.600 226.925 C 209.600 226.616,209.270 226.888,208.175 228.100 M184.433 227.344 C 184.525 227.423,185.140 227.608,185.800 227.756 C 186.676 227.952,186.838 227.915,186.400 227.618 C 185.860 227.253,184.032 226.998,184.433 227.344 M216.975 229.300 L 215.800 230.600 217.100 229.425 C 217.815 228.779,218.400 228.194,218.400 228.125 C 218.400 227.816,218.070 228.088,216.975 229.300 M244.087 229.000 C 244.091 229.440,244.232 230.340,244.400 231.000 C 244.674 232.078,244.706 232.098,244.713 231.200 C 244.717 230.650,244.576 229.750,244.400 229.200 C 244.149 228.416,244.081 228.373,244.087 229.000 M91.293 230.200 C 91.294 230.860,91.432 231.940,91.600 232.600 C 92.023 234.263,92.042 232.626,91.623 230.600 C 91.345 229.255,91.292 229.191,91.293 230.200 M308.255 231.055 C 308.113 232.086,308.074 233.008,308.169 233.102 C 308.263 233.196,308.465 232.439,308.618 231.418 C 308.771 230.398,308.810 229.476,308.704 229.371 C 308.598 229.265,308.396 230.023,308.255 231.055 M146.640 231.240 C 146.493 232.157,146.452 232.985,146.547 233.080 C 146.642 233.176,146.846 232.510,147.000 231.600 C 147.154 230.690,147.196 229.862,147.093 229.760 C 146.990 229.657,146.787 230.323,146.640 231.240 M205.775 230.900 L 204.600 232.200 205.900 231.025 C 206.615 230.379,207.200 229.794,207.200 229.725 C 207.200 229.416,206.870 229.688,205.775 230.900 M254.487 230.400 C 254.483 230.950,254.624 231.850,254.800 232.400 C 255.231 233.744,255.231 232.292,254.800 230.600 C 254.526 229.522,254.494 229.502,254.487 230.400 M214.575 232.100 L 213.400 233.400 214.700 232.225 C 215.415 231.579,216.000 230.994,216.000 230.925 C 216.000 230.616,215.670 230.888,214.575 232.100 M194.400 232.600 C 195.146 233.370,195.847 234.000,195.957 234.000 C 196.067 234.000,195.546 233.370,194.800 232.600 C 194.054 231.830,193.353 231.200,193.243 231.200 C 193.133 231.200,193.654 231.830,194.400 232.600 M203.375 233.700 L 202.200 235.000 203.500 233.825 C 204.712 232.730,204.984 232.400,204.675 232.400 C 204.606 232.400,204.021 232.985,203.375 233.700 M212.175 234.900 L 211.000 236.200 212.300 235.025 C 213.512 233.930,213.784 233.600,213.475 233.600 C 213.406 233.600,212.821 234.185,212.175 234.900 M92.087 234.800 C 92.083 235.350,92.224 236.250,92.400 236.800 C 92.831 238.144,92.831 236.692,92.400 235.000 C 92.126 233.922,92.094 233.902,92.087 234.800 M307.440 235.640 C 307.293 236.557,307.252 237.385,307.347 237.480 C 307.442 237.576,307.646 236.910,307.800 236.000 C 307.954 235.090,307.996 234.262,307.893 234.160 C 307.790 234.057,307.587 234.723,307.440 235.640 M181.633 234.547 C 181.725 234.628,182.520 234.804,183.400 234.938 C 184.515 235.107,184.758 235.071,184.200 234.819 C 183.432 234.471,181.290 234.244,181.633 234.547 M145.822 236.222 C 145.672 237.025,145.628 237.762,145.726 237.860 C 145.824 237.957,146.027 237.381,146.178 236.578 C 146.328 235.775,146.372 235.038,146.274 234.940 C 146.176 234.843,145.973 235.419,145.822 236.222 M255.280 235.400 C 255.280 235.840,255.424 236.650,255.600 237.200 C 255.854 237.992,255.920 238.033,255.920 237.400 C 255.920 236.960,255.776 236.150,255.600 235.600 C 255.346 234.808,255.280 234.767,255.280 235.400 M200.975 236.500 L 199.800 237.800 201.100 236.625 C 202.312 235.530,202.584 235.200,202.275 235.200 C 202.206 235.200,201.621 235.785,200.975 236.500 M198.053 237.300 C 198.364 238.020,198.817 238.389,199.364 238.368 C 199.939 238.347,200.013 238.269,199.600 238.120 C 199.270 238.001,198.680 237.520,198.289 237.052 C 197.584 236.207,197.582 236.210,198.053 237.300 M209.775 237.700 L 208.600 239.000 209.900 237.825 C 210.615 237.179,211.200 236.594,211.200 236.525 C 211.200 236.216,210.870 236.488,209.775 237.700 M92.868 238.600 C 92.862 239.040,93.011 239.760,93.200 240.200 C 93.638 241.219,93.638 240.168,93.200 238.800 C 92.943 237.996,92.877 237.957,92.868 238.600 M306.650 239.250 C 306.509 239.953,306.469 240.602,306.559 240.692 C 306.650 240.783,306.848 240.291,307.000 239.600 C 307.152 238.909,307.193 238.259,307.091 238.158 C 306.989 238.056,306.791 238.547,306.650 239.250 M207.601 240.198 C 207.086 240.748,206.739 241.264,206.832 241.346 C 206.924 241.428,207.419 240.978,207.930 240.347 C 209.076 238.935,208.874 238.844,207.601 240.198 M256.080 240.600 C 256.080 241.040,256.224 241.850,256.400 242.400 C 256.654 243.192,256.720 243.233,256.720 242.600 C 256.720 242.160,256.576 241.350,256.400 240.800 C 256.146 240.008,256.080 239.967,256.080 240.600 M93.668 241.800 C 93.662 242.240,93.811 242.960,94.000 243.400 C 94.438 244.419,94.438 243.368,94.000 242.000 C 93.743 241.196,93.677 241.157,93.668 241.800 M306.046 241.667 C 306.021 242.034,305.896 242.664,305.770 243.067 C 305.552 243.762,305.563 243.763,305.997 243.087 C 306.248 242.696,306.373 242.066,306.273 241.687 C 306.111 241.068,306.088 241.066,306.046 241.667 M192.256 242.100 C 194.391 245.623,196.582 248.712,195.589 246.800 C 194.872 245.419,192.324 241.600,192.120 241.600 C 192.028 241.600,192.089 241.825,192.256 242.100 M217.128 241.900 C 222.478 241.963,231.118 241.963,236.328 241.900 C 241.537 241.836,237.160 241.785,226.600 241.785 C 216.040 241.785,211.777 241.837,217.128 241.900 M154.600 245.200 C 154.446 246.110,154.404 246.938,154.507 247.040 C 154.610 247.143,154.813 246.477,154.960 245.560 C 155.107 244.643,155.148 243.815,155.053 243.720 C 154.958 243.624,154.754 244.290,154.600 245.200 M94.456 244.800 C 94.456 245.130,94.611 245.760,94.800 246.200 C 95.017 246.704,95.144 246.778,95.144 246.400 C 95.144 246.070,94.989 245.440,94.800 245.000 C 94.583 244.496,94.456 244.422,94.456 244.800 M305.029 245.429 C 304.881 246.015,304.838 246.572,304.932 246.666 C 305.027 246.760,305.224 246.358,305.371 245.771 C 305.519 245.185,305.562 244.628,305.468 244.534 C 305.373 244.440,305.176 244.842,305.029 245.429 M144.240 246.440 C 144.093 247.357,144.052 248.185,144.147 248.280 C 144.242 248.376,144.446 247.710,144.600 246.800 C 144.754 245.890,144.796 245.062,144.693 244.960 C 144.590 244.857,144.387 245.523,144.240 246.440 M256.887 245.600 C 256.883 246.150,257.024 247.050,257.200 247.600 C 257.631 248.944,257.631 247.492,257.200 245.800 C 256.926 244.722,256.894 244.702,256.887 245.600 M95.262 247.600 C 95.261 247.930,95.606 248.920,96.029 249.800 C 96.452 250.680,96.686 250.950,96.550 250.400 C 96.175 248.895,95.266 246.916,95.262 247.600 M303.846 249.046 C 303.010 251.501,303.275 251.766,304.185 249.385 C 304.570 248.376,304.796 247.463,304.687 247.354 C 304.579 247.245,304.200 248.007,303.846 249.046 M206.589 249.618 C 206.344 250.014,207.380 252.000,207.832 252.000 C 207.949 252.000,207.765 251.600,207.423 251.111 C 207.080 250.622,206.800 250.084,206.800 249.915 C 206.800 249.746,215.845 249.559,226.900 249.500 L 247.000 249.392 226.924 249.296 C 213.307 249.231,206.764 249.334,206.589 249.618 M143.422 251.422 C 143.272 252.225,143.228 252.962,143.326 253.060 C 143.424 253.157,143.627 252.581,143.778 251.778 C 143.928 250.975,143.972 250.238,143.874 250.140 C 143.776 250.043,143.573 250.619,143.422 251.422 M257.680 250.600 C 257.680 251.040,257.824 251.850,258.000 252.400 C 258.254 253.192,258.320 253.233,258.320 252.600 C 258.320 252.160,258.176 251.350,258.000 250.800 C 257.746 250.008,257.680 249.967,257.680 250.600 M96.817 251.845 C 96.802 252.241,97.743 254.622,99.781 259.343 C 100.147 260.192,100.540 260.794,100.653 260.680 C 100.766 260.567,100.546 259.873,100.163 259.137 C 99.780 258.402,98.874 256.360,98.150 254.600 C 97.427 252.840,96.827 251.600,96.817 251.845 M302.832 251.894 C 302.814 252.165,302.069 254.055,301.175 256.094 C 299.051 260.940,298.996 261.086,299.485 260.600 C 300.150 259.938,303.247 252.333,303.048 251.849 C 302.924 251.547,302.853 251.561,302.832 251.894 M208.000 252.520 C 208.000 252.904,210.045 256.000,210.299 256.000 C 210.478 256.000,209.841 254.919,208.539 253.011 C 208.242 252.577,208.000 252.356,208.000 252.520 M153.324 255.800 C 153.326 257.120,153.401 257.612,153.490 256.893 C 153.579 256.174,153.577 255.094,153.486 254.493 C 153.395 253.892,153.322 254.480,153.324 255.800 M248.124 255.800 C 248.126 257.120,248.201 257.612,248.290 256.893 C 248.379 256.174,248.377 255.094,248.286 254.493 C 248.195 253.892,248.122 254.480,248.124 255.800 M142.622 256.622 C 142.472 257.425,142.428 258.162,142.526 258.260 C 142.624 258.357,142.827 257.781,142.978 256.978 C 143.128 256.175,143.172 255.438,143.074 255.340 C 142.976 255.243,142.773 255.819,142.622 256.622 M202.205 257.365 C 202.589 258.006,203.259 259.131,203.692 259.865 C 204.125 260.599,204.563 261.200,204.665 261.200 C 204.944 261.200,203.279 258.343,202.333 257.200 L 201.505 256.200 202.205 257.365 M142.109 261.600 C 142.109 262.590,142.187 262.995,142.282 262.500 C 142.378 262.005,142.378 261.195,142.282 260.700 C 142.187 260.205,142.109 260.610,142.109 261.600 M259.309 261.600 C 259.309 262.590,259.387 262.995,259.482 262.500 C 259.578 262.005,259.578 261.195,259.482 260.700 C 259.387 260.205,259.309 260.610,259.309 261.600 M205.455 262.600 C 206.380 264.179,206.400 264.203,206.400 263.711 C 206.400 263.479,206.029 262.864,205.576 262.344 L 204.753 261.400 205.455 262.600 M103.209 266.300 C 103.214 266.465,103.585 267.050,104.033 267.600 L 104.848 268.600 104.214 267.300 C 103.611 266.065,103.189 265.645,103.209 266.300 M295.786 267.300 L 295.152 268.600 295.967 267.600 C 296.752 266.637,297.008 266.000,296.610 266.000 C 296.506 266.000,296.135 266.585,295.786 267.300 M104.815 269.000 C 104.817 269.220,105.186 269.850,105.636 270.400 C 106.179 271.064,106.315 271.131,106.040 270.600 C 105.366 269.295,104.812 268.572,104.815 269.000 M294.253 270.100 L 293.533 271.400 294.358 270.400 C 295.089 269.513,295.414 268.800,295.086 268.800 C 295.024 268.800,294.649 269.385,294.253 270.100 M175.100 271.500 C 189.235 271.558,212.365 271.558,226.500 271.500 C 240.635 271.442,229.070 271.394,200.800 271.394 C 172.530 271.394,160.965 271.442,175.100 271.500 M106.812 272.400 C 107.587 273.920,110.341 277.916,110.816 278.210 C 111.047 278.353,110.302 277.059,109.159 275.335 C 106.918 271.953,105.997 270.802,106.812 272.400 M291.065 275.023 C 289.820 276.906,288.982 278.335,289.202 278.198 C 289.633 277.932,292.370 273.985,293.153 272.500 C 294.125 270.658,293.261 271.702,291.065 275.023 M111.479 279.200 C 113.946 283.106,124.876 294.656,129.600 298.350 L 131.800 300.070 129.400 297.936 C 124.386 293.479,118.729 287.752,115.918 284.286 C 112.801 280.444,110.860 278.219,111.479 279.200 M285.748 282.300 C 283.009 285.826,275.047 294.065,270.600 297.974 L 268.200 300.084 270.400 298.357 C 273.676 295.785,282.720 286.654,285.610 283.000 C 288.932 278.802,288.933 278.800,288.682 278.800 C 288.564 278.800,287.243 280.375,285.748 282.300 M132.013 300.316 C 132.026 300.610,132.327 300.844,136.000 303.407 C 138.888 305.422,138.119 304.624,134.700 302.058 C 133.215 300.944,132.006 300.160,132.013 300.316 M266.400 301.262 C 265.630 301.913,263.153 303.634,260.896 305.086 C 258.639 306.538,256.869 307.802,256.961 307.895 C 257.054 307.987,259.260 306.615,261.865 304.846 C 267.315 301.144,268.207 300.471,267.971 300.243 C 267.877 300.152,267.170 300.611,266.400 301.262 M138.400 304.920 C 138.400 305.110,142.141 307.625,143.500 308.349 C 145.315 309.315,144.330 308.428,141.900 306.907 C 138.564 304.819,138.400 304.726,138.400 304.920 M255.197 308.700 C 254.658 309.085,252.053 310.518,249.408 311.885 C 246.764 313.252,244.749 314.377,244.930 314.385 C 245.455 314.409,254.494 309.685,255.600 308.809 C 256.839 307.829,256.534 307.746,255.197 308.700 M145.400 309.447 C 146.381 310.207,154.836 314.498,155.009 314.324 C 155.078 314.255,152.764 312.990,149.867 311.513 C 146.970 310.036,144.960 309.107,145.400 309.447 M155.820 314.739 C 156.296 315.163,162.457 317.609,163.000 317.590 C 163.366 317.577,156.031 314.409,155.620 314.403 C 155.521 314.401,155.611 314.552,155.820 314.739 M240.400 316.000 C 239.410 316.415,238.803 316.765,239.051 316.778 C 239.618 316.806,242.400 315.657,242.400 315.395 C 242.400 315.148,242.512 315.114,240.400 316.000 M164.000 318.000 C 164.330 318.213,164.960 318.378,165.400 318.366 L 166.200 318.344 165.400 318.000 C 164.204 317.486,163.205 317.486,164.000 318.000 M234.600 318.000 L 233.800 318.344 234.600 318.366 C 235.040 318.378,235.670 318.213,236.000 318.000 C 236.795 317.486,235.796 317.486,234.600 318.000 M169.200 319.600 C 169.530 319.813,170.160 319.978,170.600 319.966 L 171.400 319.944 170.600 319.600 C 169.404 319.086,168.405 319.086,169.200 319.600 M229.400 319.600 L 228.600 319.944 229.400 319.966 C 229.840 319.978,230.470 319.813,230.800 319.600 C 231.595 319.086,230.596 319.086,229.400 319.600 M172.000 320.382 C 172.330 320.605,172.945 320.791,173.367 320.794 C 174.390 320.802,174.071 320.573,172.600 320.244 C 171.724 320.048,171.562 320.085,172.000 320.382 M226.800 320.400 C 225.976 320.664,225.941 320.726,226.600 320.754 C 227.040 320.773,227.670 320.613,228.000 320.400 C 228.701 319.947,228.214 319.947,226.800 320.400 M175.400 321.200 C 175.840 321.389,176.560 321.538,177.000 321.532 C 177.643 321.523,177.604 321.457,176.800 321.200 C 175.432 320.762,174.381 320.762,175.400 321.200 M223.200 321.200 C 222.396 321.457,222.357 321.523,223.000 321.532 C 223.440 321.538,224.160 321.389,224.600 321.200 C 225.619 320.762,224.568 320.762,223.200 321.200 M179.000 322.000 C 179.440 322.189,180.340 322.335,181.000 322.325 L 182.200 322.305 181.000 322.000 C 180.340 321.832,179.440 321.686,179.000 321.675 L 178.200 321.656 179.000 322.000 M219.000 322.000 L 217.800 322.305 219.000 322.325 C 219.660 322.335,220.560 322.189,221.000 322.000 L 221.800 321.656 221.000 321.675 C 220.560 321.686,219.660 321.832,219.000 322.000 M183.400 322.783 C 184.608 323.107,188.677 323.328,188.367 323.052 C 188.275 322.971,186.850 322.804,185.200 322.682 C 183.369 322.547,182.668 322.586,183.400 322.783 M213.400 322.800 L 211.400 323.074 213.400 323.090 C 214.500 323.098,215.940 322.968,216.600 322.800 L 217.800 322.495 216.600 322.510 C 215.940 322.519,214.500 322.649,213.400 322.800 M192.000 323.660 C 193.210 323.804,196.810 323.921,200.000 323.921 C 203.190 323.921,206.790 323.804,208.000 323.660 C 209.210 323.517,205.610 323.400,200.000 323.400 C 194.390 323.400,190.790 323.517,192.000 323.660 " stroke="none" fill="#84879a" fill-rule="evenodd"></path><path id="path4" d="M198.700 103.889 C 199.415 103.978,200.585 103.978,201.300 103.889 C 202.015 103.801,201.430 103.728,200.000 103.728 C 198.570 103.728,197.985 103.801,198.700 103.889 M187.600 104.400 L 185.800 104.680 187.600 104.700 C 188.590 104.712,190.390 104.584,191.600 104.417 L 193.800 104.113 191.600 104.116 C 190.390 104.118,188.590 104.246,187.600 104.400 M208.400 104.417 C 209.610 104.584,211.410 104.715,212.400 104.707 L 214.200 104.693 212.200 104.382 C 211.100 104.210,209.300 104.080,208.200 104.091 L 206.200 104.113 208.400 104.417 M181.600 105.200 C 180.256 105.631,181.708 105.631,183.400 105.200 C 184.478 104.926,184.498 104.894,183.600 104.887 C 183.050 104.883,182.150 105.024,181.600 105.200 M216.600 105.200 C 218.292 105.631,219.744 105.631,218.400 105.200 C 217.850 105.024,216.950 104.883,216.400 104.887 C 215.502 104.894,215.522 104.926,216.600 105.200 M177.200 106.000 L 176.200 106.320 177.200 106.332 C 177.750 106.338,178.560 106.189,179.000 106.000 L 179.800 105.656 179.000 105.668 C 178.560 105.674,177.750 105.824,177.200 106.000 M221.000 106.000 C 221.440 106.189,222.250 106.338,222.800 106.332 L 223.800 106.320 222.800 106.000 C 222.250 105.824,221.440 105.674,221.000 105.668 L 220.200 105.656 221.000 106.000 M173.800 106.800 L 173.000 107.144 173.800 107.144 C 174.240 107.144,174.960 106.989,175.400 106.800 L 176.200 106.456 175.400 106.456 C 174.960 106.456,174.240 106.611,173.800 106.800 M224.600 106.800 C 225.040 106.989,225.760 107.144,226.200 107.144 L 227.000 107.144 226.200 106.800 C 225.760 106.611,225.040 106.456,224.600 106.456 L 223.800 106.456 224.600 106.800 M170.400 107.600 C 169.605 108.114,170.604 108.114,171.800 107.600 L 172.600 107.256 171.800 107.234 C 171.360 107.222,170.730 107.387,170.400 107.600 M228.200 107.600 C 229.396 108.114,230.395 108.114,229.600 107.600 C 229.270 107.387,228.640 107.222,228.200 107.234 L 227.400 107.256 228.200 107.600 M165.600 109.200 C 165.067 109.545,165.067 109.588,165.600 109.588 C 165.930 109.588,166.470 109.413,166.800 109.200 C 167.333 108.855,167.333 108.812,166.800 108.812 C 166.470 108.812,165.930 108.987,165.600 109.200 M233.200 109.200 C 233.530 109.413,234.070 109.588,234.400 109.588 C 234.933 109.588,234.933 109.545,234.400 109.200 C 234.070 108.987,233.530 108.812,233.200 108.812 C 232.667 108.812,232.667 108.855,233.200 109.200 M159.800 111.178 C 158.920 111.595,158.380 111.936,158.600 111.938 C 159.146 111.942,162.302 110.464,161.800 110.440 C 161.580 110.430,160.680 110.762,159.800 111.178 M149.800 115.732 C 145.301 118.101,142.800 119.582,142.800 119.879 C 142.800 119.989,143.475 119.664,144.300 119.157 C 145.125 118.650,147.780 117.199,150.200 115.932 C 152.620 114.665,154.420 113.628,154.200 113.628 C 153.980 113.627,152.000 114.574,149.800 115.732 M245.633 113.754 C 246.040 114.129,253.200 117.587,253.200 117.408 C 253.200 117.186,246.177 113.600,245.741 113.600 C 245.590 113.600,245.542 113.669,245.633 113.754 M253.600 117.714 C 253.600 117.955,256.706 120.000,257.071 120.000 C 257.230 120.000,257.189 119.849,256.980 119.664 C 256.352 119.108,253.600 117.521,253.600 117.714 M137.196 123.340 C 135.107 124.737,133.134 126.222,132.811 126.640 C 132.326 127.268,132.396 127.254,133.212 126.555 C 133.755 126.091,135.640 124.761,137.400 123.601 C 139.160 122.440,140.771 121.335,140.980 121.145 C 141.927 120.285,140.704 120.994,137.196 123.340 M259.000 121.087 C 259.220 121.309,260.840 122.440,262.600 123.601 C 264.360 124.761,266.245 126.091,266.788 126.555 C 267.582 127.234,267.662 127.253,267.196 126.649 C 266.878 126.236,265.083 124.873,263.209 123.620 C 259.407 121.080,258.385 120.465,259.000 121.087 M127.106 131.323 C 122.973 134.929,116.377 141.600,116.944 141.600 C 117.060 141.600,118.110 140.578,119.277 139.329 C 122.689 135.678,127.485 131.235,130.970 128.494 C 131.604 127.996,132.045 127.512,131.951 127.417 C 131.856 127.323,129.676 129.080,127.106 131.323 M268.026 127.463 C 268.040 127.648,269.394 128.880,271.034 130.200 C 272.674 131.520,276.019 134.625,278.468 137.100 C 283.426 142.110,284.870 143.213,280.566 138.701 C 276.099 134.020,267.970 126.734,268.026 127.463 M115.713 142.900 C 113.800 144.982,108.919 151.477,107.823 153.400 C 107.146 154.588,107.146 154.590,107.870 153.610 C 110.871 149.540,113.957 145.504,115.292 143.900 C 116.915 141.952,117.193 141.288,115.713 142.900 M285.630 145.093 C 287.044 146.868,288.705 148.923,289.322 149.660 L 290.443 151.000 289.328 149.400 C 287.557 146.860,284.052 142.479,283.534 142.159 C 283.273 141.998,284.217 143.319,285.630 145.093 M291.385 152.700 C 292.002 153.635,292.583 154.400,292.676 154.400 C 292.964 154.400,291.433 151.966,290.832 151.469 C 290.520 151.211,290.768 151.765,291.385 152.700 M106.308 155.700 C 105.987 156.195,105.507 157.050,105.240 157.600 C 104.560 159.003,105.794 157.506,106.641 155.900 C 107.339 154.574,107.123 154.444,106.308 155.700 M293.350 155.800 C 293.674 156.460,294.231 157.360,294.589 157.800 C 295.197 158.548,295.201 158.522,294.650 157.400 C 294.326 156.740,293.769 155.840,293.411 155.400 C 292.803 154.652,292.799 154.678,293.350 155.800 M103.786 160.100 L 103.152 161.400 103.967 160.400 C 104.752 159.437,105.008 158.800,104.610 158.800 C 104.506 158.800,104.135 159.385,103.786 160.100 M295.209 159.100 C 295.214 159.265,295.585 159.850,296.033 160.400 L 296.848 161.400 296.214 160.100 C 295.611 158.865,295.189 158.445,295.209 159.100 M101.800 163.600 C 101.220 164.744,100.828 165.761,100.927 165.860 C 101.027 165.960,101.577 165.100,102.150 163.950 C 102.723 162.800,103.116 161.783,103.023 161.690 C 102.930 161.597,102.380 162.456,101.800 163.600 M296.871 161.900 C 298.121 164.632,298.894 166.040,299.055 165.879 C 299.284 165.649,297.302 161.600,296.960 161.600 C 296.835 161.600,296.795 161.735,296.871 161.900 M99.072 169.419 C 98.132 171.389,98.264 171.724,99.247 169.862 C 99.693 169.016,99.987 168.254,99.901 168.167 C 99.814 168.081,99.441 168.644,99.072 169.419 M300.034 168.200 C 300.034 168.420,300.378 169.230,300.800 170.000 C 301.222 170.770,301.566 171.220,301.566 171.000 C 301.566 170.780,301.222 169.970,300.800 169.200 C 300.378 168.430,300.034 167.980,300.034 168.200 M96.200 176.400 C 96.050 176.873,96.017 177.350,96.127 177.460 C 96.237 177.570,96.450 177.273,96.600 176.800 C 96.750 176.327,96.783 175.850,96.673 175.740 C 96.563 175.630,96.350 175.927,96.200 176.400 M303.212 176.000 C 303.212 176.330,303.387 176.870,303.600 177.200 C 303.945 177.733,303.988 177.733,303.988 177.200 C 303.988 176.870,303.813 176.330,303.600 176.000 C 303.255 175.467,303.212 175.467,303.212 176.000 M94.629 181.029 C 94.481 181.615,94.438 182.172,94.532 182.266 C 94.627 182.360,94.824 181.958,94.971 181.371 C 95.119 180.785,95.162 180.228,95.068 180.134 C 94.973 180.040,94.776 180.442,94.629 181.029 M304.856 180.400 C 304.856 180.730,305.011 181.360,305.200 181.800 C 305.417 182.304,305.544 182.378,305.544 182.000 C 305.544 181.670,305.389 181.040,305.200 180.600 C 304.983 180.096,304.856 180.022,304.856 180.400 M93.829 183.829 C 93.681 184.415,93.638 184.972,93.732 185.066 C 93.827 185.160,94.024 184.758,94.171 184.171 C 94.319 183.585,94.362 183.028,94.268 182.934 C 94.173 182.840,93.976 183.242,93.829 183.829 M305.634 183.400 C 305.622 183.840,305.787 184.470,306.000 184.800 C 306.514 185.595,306.514 184.596,306.000 183.400 L 305.656 182.600 305.634 183.400 M93.000 186.800 C 92.848 187.491,92.814 188.147,92.924 188.257 C 93.034 188.367,93.248 187.891,93.400 187.200 C 93.552 186.509,93.586 185.853,93.476 185.743 C 93.366 185.633,93.152 186.109,93.000 186.800 M306.456 186.400 C 306.456 186.730,306.611 187.360,306.800 187.800 C 307.017 188.304,307.144 188.378,307.144 188.000 C 307.144 187.670,306.989 187.040,306.800 186.600 C 306.583 186.096,306.456 186.022,306.456 186.400 M92.229 190.229 C 92.081 190.815,92.038 191.372,92.132 191.466 C 92.227 191.560,92.424 191.158,92.571 190.571 C 92.719 189.985,92.762 189.428,92.668 189.334 C 92.573 189.240,92.376 189.642,92.229 190.229 M307.268 189.600 C 307.288 190.639,307.918 192.346,307.932 191.400 C 307.938 190.960,307.789 190.240,307.600 189.800 C 307.389 189.310,307.261 189.232,307.268 189.600 M91.418 194.218 C 91.265 195.239,91.222 196.155,91.322 196.255 C 91.422 196.355,91.629 195.602,91.782 194.582 C 91.935 193.561,91.978 192.645,91.878 192.545 C 91.778 192.445,91.571 193.198,91.418 194.218 M308.087 193.400 C 308.083 194.060,308.224 195.050,308.400 195.600 L 308.720 196.600 308.713 195.600 C 308.709 195.050,308.568 194.060,308.400 193.400 L 308.095 192.200 308.087 193.400 M90.615 199.415 C 90.461 200.654,90.424 201.757,90.534 201.867 C 90.644 201.977,90.861 201.054,91.015 199.815 C 91.170 198.577,91.207 197.473,91.097 197.363 C 90.987 197.253,90.770 198.177,90.615 199.415 M308.869 198.200 C 308.856 198.860,308.995 200.120,309.177 201.000 C 309.465 202.392,309.511 202.444,309.531 201.400 C 309.544 200.740,309.405 199.480,309.223 198.600 C 308.935 197.208,308.889 197.156,308.869 198.200 M89.862 207.300 C 89.555 211.237,89.595 217.993,89.947 221.600 C 90.086 223.030,90.203 219.655,90.206 214.100 C 90.209 208.545,90.190 204.000,90.165 204.000 C 90.139 204.000,90.003 205.485,89.862 207.300 M309.800 214.000 C 309.800 219.610,309.914 223.030,310.053 221.600 C 310.193 220.170,310.306 216.750,310.306 214.000 C 310.306 211.250,310.193 207.830,310.053 206.400 C 309.914 204.970,309.800 208.390,309.800 214.000 M90.470 226.800 C 90.457 227.350,90.595 228.520,90.777 229.400 L 91.108 231.000 91.107 229.600 C 91.105 227.835,90.509 225.212,90.470 226.800 M308.985 228.185 C 308.830 229.423,308.793 230.527,308.903 230.637 C 309.013 230.747,309.230 229.823,309.385 228.585 C 309.539 227.346,309.576 226.243,309.466 226.133 C 309.356 226.023,309.139 226.946,308.985 228.185 M91.295 232.400 C 91.295 232.950,91.432 233.940,91.600 234.600 C 91.872 235.670,91.905 235.692,91.905 234.800 C 91.905 234.250,91.768 233.260,91.600 232.600 C 91.328 231.530,91.295 231.508,91.295 232.400 M308.182 233.382 C 308.029 234.402,307.994 235.327,308.104 235.437 C 308.214 235.547,308.429 234.802,308.582 233.782 C 308.735 232.761,308.770 231.837,308.660 231.727 C 308.550 231.617,308.335 232.361,308.182 233.382 M92.068 236.600 C 92.062 237.040,92.211 237.760,92.400 238.200 C 92.838 239.219,92.838 238.168,92.400 236.800 C 92.143 235.996,92.077 235.957,92.068 236.600 M307.450 237.250 C 307.309 237.953,307.269 238.602,307.359 238.692 C 307.450 238.783,307.648 238.291,307.800 237.600 C 307.952 236.909,307.993 236.259,307.891 236.158 C 307.789 236.056,307.591 236.547,307.450 237.250 M92.856 240.200 C 92.856 240.640,93.011 241.360,93.200 241.800 L 93.544 242.600 93.544 241.800 C 93.544 241.360,93.389 240.640,93.200 240.200 L 92.856 239.400 92.856 240.200 M306.600 240.800 C 306.448 241.491,306.407 242.141,306.509 242.242 C 306.611 242.344,306.809 241.853,306.950 241.150 C 307.091 240.447,307.131 239.798,307.041 239.708 C 306.950 239.617,306.752 240.109,306.600 240.800 M93.656 243.200 C 93.656 243.530,93.811 244.160,94.000 244.600 C 94.217 245.104,94.344 245.178,94.344 244.800 C 94.344 244.470,94.189 243.840,94.000 243.400 C 93.783 242.896,93.656 242.822,93.656 243.200 M305.873 243.353 C 305.723 243.745,305.611 244.366,305.625 244.733 C 305.642 245.175,305.781 245.074,306.037 244.434 C 306.249 243.903,306.361 243.282,306.285 243.054 C 306.209 242.827,306.024 242.961,305.873 243.353 M94.456 246.000 C 94.456 246.330,94.611 246.960,94.800 247.400 C 95.017 247.904,95.144 247.978,95.144 247.600 C 95.144 247.270,94.989 246.640,94.800 246.200 C 94.583 245.696,94.456 245.622,94.456 246.000 M305.029 246.629 C 304.881 247.215,304.838 247.772,304.932 247.866 C 305.027 247.960,305.224 247.558,305.371 246.971 C 305.519 246.385,305.562 245.828,305.468 245.734 C 305.373 245.640,305.176 246.042,305.029 246.629 M96.012 250.800 C 96.012 251.130,96.187 251.670,96.400 252.000 C 96.745 252.533,96.788 252.533,96.788 252.000 C 96.788 251.670,96.613 251.130,96.400 250.800 C 96.055 250.267,96.012 250.267,96.012 250.800 M303.400 251.200 C 303.250 251.673,303.217 252.150,303.327 252.260 C 303.437 252.370,303.650 252.073,303.800 251.600 C 303.950 251.127,303.983 250.650,303.873 250.540 C 303.763 250.430,303.550 250.727,303.400 251.200 M98.434 257.000 C 98.434 257.220,98.778 258.030,99.200 258.800 C 99.622 259.570,99.966 260.020,99.966 259.800 C 99.966 259.580,99.622 258.770,99.200 258.000 C 98.778 257.230,98.434 256.780,98.434 257.000 M300.672 258.219 C 299.732 260.189,299.864 260.524,300.847 258.662 C 301.293 257.816,301.587 257.054,301.501 256.967 C 301.414 256.881,301.041 257.444,300.672 258.219 M100.800 262.213 C 100.800 262.668,102.863 266.470,103.023 266.310 C 103.116 266.217,102.728 265.209,102.160 264.071 C 101.228 262.200,100.800 261.615,100.800 262.213 M298.240 263.240 C 297.886 263.949,297.674 264.607,297.769 264.702 C 297.864 264.797,298.238 264.301,298.600 263.600 C 298.962 262.899,299.174 262.241,299.071 262.138 C 298.968 262.035,298.594 262.531,298.240 263.240 M103.786 267.900 C 104.135 268.615,104.506 269.200,104.610 269.200 C 105.008 269.200,104.752 268.563,103.967 267.600 L 103.152 266.600 103.786 267.900 M295.814 267.835 C 295.441 268.404,295.227 268.961,295.339 269.072 C 295.450 269.183,295.829 268.718,296.181 268.037 C 296.959 266.533,296.744 266.415,295.814 267.835 M105.350 270.600 C 105.674 271.260,106.231 272.160,106.589 272.600 C 107.197 273.348,107.201 273.322,106.650 272.200 C 106.326 271.540,105.769 270.640,105.411 270.200 C 104.803 269.452,104.799 269.478,105.350 270.600 M294.308 270.500 C 293.433 271.849,292.648 273.456,293.087 273.000 C 293.648 272.417,295.298 269.600,295.079 269.600 C 294.976 269.600,294.629 270.005,294.308 270.500 M107.877 274.831 C 108.275 275.508,108.856 276.273,109.168 276.531 C 109.480 276.789,109.232 276.235,108.615 275.300 C 107.320 273.337,106.809 273.012,107.877 274.831 M291.385 275.300 C 290.768 276.235,290.520 276.789,290.832 276.531 C 291.433 276.034,292.964 273.600,292.676 273.600 C 292.583 273.600,292.002 274.365,291.385 275.300 M110.672 278.600 C 112.443 281.140,115.948 285.521,116.466 285.841 C 116.893 286.105,113.535 281.753,110.678 278.340 L 109.557 277.000 110.672 278.600 M288.930 278.700 C 288.318 279.525,286.738 281.541,285.418 283.180 C 284.098 284.819,283.241 286.022,283.513 285.854 C 284.282 285.378,290.640 277.200,290.241 277.200 C 290.131 277.200,289.541 277.875,288.930 278.700 M119.215 289.100 C 123.033 293.213,132.031 301.279,131.974 300.537 C 131.960 300.352,130.606 299.120,128.966 297.800 C 127.326 296.480,123.981 293.375,121.532 290.900 C 116.578 285.894,115.360 284.947,119.215 289.100 M279.400 289.899 C 276.420 293.062,271.744 297.398,269.039 299.506 C 268.400 300.004,267.951 300.484,268.040 300.574 C 268.235 300.768,272.459 297.193,275.800 294.006 C 279.739 290.248,283.404 286.396,282.988 286.452 C 282.775 286.480,281.160 288.032,279.400 289.899 M132.729 301.284 C 133.427 302.165,141.200 307.486,141.200 307.082 C 141.200 306.992,139.895 306.055,138.300 305.000 C 136.705 303.946,134.680 302.528,133.800 301.849 C 132.920 301.171,132.438 300.916,132.729 301.284 M261.690 304.966 C 259.254 306.636,257.981 307.673,259.200 306.994 C 260.475 306.285,264.400 303.561,264.400 303.385 C 264.400 303.110,264.398 303.111,261.690 304.966 M143.000 308.290 C 143.220 308.500,144.120 309.076,145.000 309.570 C 145.880 310.065,146.240 310.170,145.800 309.804 C 144.906 309.061,142.372 307.691,143.000 308.290 M255.281 308.972 C 253.321 310.358,253.185 310.665,255.000 309.605 C 256.878 308.510,257.525 307.991,256.980 308.020 C 256.771 308.030,256.007 308.459,255.281 308.972 M146.800 310.599 C 146.800 310.865,154.049 314.485,154.226 314.307 C 154.304 314.229,152.666 313.319,150.584 312.285 C 148.503 311.251,146.800 310.492,146.800 310.599 M249.200 312.400 C 247.110 313.478,245.539 314.369,245.708 314.380 C 246.133 314.408,253.200 310.839,253.200 310.596 C 253.200 310.324,253.407 310.231,249.200 312.400 M165.600 318.800 C 165.930 319.013,166.470 319.188,166.800 319.188 C 167.333 319.188,167.333 319.145,166.800 318.800 C 166.470 318.587,165.930 318.412,165.600 318.412 C 165.067 318.412,165.067 318.455,165.600 318.800 M233.200 318.800 C 232.667 319.145,232.667 319.188,233.200 319.188 C 233.530 319.188,234.070 319.013,234.400 318.800 C 234.933 318.455,234.933 318.412,234.400 318.412 C 234.070 318.412,233.530 318.587,233.200 318.800 M170.600 320.400 C 171.796 320.914,172.795 320.914,172.000 320.400 C 171.670 320.187,171.040 320.022,170.600 320.034 L 169.800 320.056 170.600 320.400 M228.000 320.400 C 227.205 320.914,228.204 320.914,229.400 320.400 L 230.200 320.056 229.400 320.034 C 228.960 320.022,228.330 320.187,228.000 320.400 M173.800 321.200 C 174.240 321.389,174.960 321.544,175.400 321.544 L 176.200 321.544 175.400 321.200 C 174.960 321.011,174.240 320.856,173.800 320.856 L 173.000 320.856 173.800 321.200 M224.600 321.200 L 223.800 321.544 224.600 321.544 C 225.040 321.544,225.760 321.389,226.200 321.200 L 227.000 320.856 226.200 320.856 C 225.760 320.856,225.040 321.011,224.600 321.200 M177.200 322.000 C 177.750 322.176,178.560 322.326,179.000 322.332 L 179.800 322.344 179.000 322.000 C 178.560 321.811,177.750 321.662,177.200 321.668 L 176.200 321.680 177.200 322.000 M221.000 322.000 L 220.200 322.344 221.000 322.332 C 221.440 322.326,222.250 322.176,222.800 322.000 L 223.800 321.680 222.800 321.668 C 222.250 321.662,221.440 321.811,221.000 322.000 M181.600 322.800 C 182.150 322.976,183.050 323.117,183.600 323.113 C 184.498 323.106,184.478 323.074,183.400 322.800 C 181.708 322.369,180.256 322.369,181.600 322.800 M216.600 322.800 C 215.522 323.074,215.502 323.106,216.400 323.113 C 216.950 323.117,217.850 322.976,218.400 322.800 C 219.744 322.369,218.292 322.369,216.600 322.800 M187.800 323.618 C 188.900 323.790,190.700 323.920,191.800 323.909 L 193.800 323.887 191.600 323.583 C 190.390 323.416,188.590 323.285,187.600 323.293 L 185.800 323.307 187.800 323.618 M208.200 323.600 L 206.200 323.874 208.200 323.902 C 209.300 323.917,211.100 323.790,212.200 323.618 L 214.200 323.307 212.200 323.316 C 211.100 323.321,209.300 323.449,208.200 323.600 M198.700 324.289 C 199.415 324.378,200.585 324.378,201.300 324.289 C 202.015 324.201,201.430 324.128,200.000 324.128 C 198.570 324.128,197.985 324.201,198.700 324.289 " stroke="none" fill="#a6a9b4" fill-rule="evenodd"></path></g></svg>