<svg xmlns="http://www.w3.org/2000/svg" width="375" viewBox="0 0 375 375" height="375" version="1.0"><defs><clipPath id="a"><path d="M 129.070312 129.070312 L 246.070312 129.070312 L 246.070312 246.070312 L 129.070312 246.070312 Z M 129.070312 129.070312"/></clipPath></defs><g clip-path="url(#a)"><path fill="#333652" d="M 187.570312 187.570312 C 203.734375 187.570312 216.820312 174.445312 216.820312 158.320312 C 216.820312 142.160156 203.734375 129.070312 187.570312 129.070312 C 171.410156 129.070312 158.320312 142.160156 158.320312 158.320312 C 158.320312 174.445312 171.410156 187.570312 187.570312 187.570312 Z M 187.570312 202.195312 C 168.085938 202.195312 129.070312 211.960938 129.070312 231.445312 L 129.070312 246.070312 L 246.070312 246.070312 L 246.070312 231.445312 C 246.070312 211.960938 207.058594 202.195312 187.570312 202.195312 Z M 187.570312 202.195312"/></g></svg>