<svg xmlns="http://www.w3.org/2000/svg" width="375" viewBox="0 0 375 375" height="375" version="1.0"><defs><clipPath id="a"><path d="M 136.59375 112.5 L 238.59375 112.5 L 238.59375 262.5 L 136.59375 262.5 Z M 136.59375 112.5"/></clipPath></defs><g clip-path="url(#a)"><path fill="#333652" d="M 235.59375 112.527344 L 139.59375 112.527344 C 137.9375 112.527344 136.59375 113.867188 136.59375 115.519531 L 136.59375 259.253906 C 136.59375 260.464844 137.324219 261.5625 138.445312 262.023438 C 139.566406 262.488281 140.855469 262.230469 141.714844 261.371094 L 187.59375 215.578125 L 233.472656 261.371094 C 234.046875 261.945312 234.8125 262.25 235.59375 262.25 C 235.980469 262.25 236.371094 262.179688 236.742188 262.023438 C 237.863281 261.5625 238.59375 260.464844 238.59375 259.253906 L 238.59375 115.519531 C 238.59375 113.867188 237.253906 112.527344 235.59375 112.527344 Z M 235.59375 112.527344"/></g></svg>